<svg width="512" height="512" viewBox="0 0 512 512" fill="none" xmlns="http://www.w3.org/2000/svg">
<g clip-path="url(#clip0_551_15)">
<path fill-rule="evenodd" clip-rule="evenodd" d="M256 0C397.385 0 512 114.615 512 256C512 397.385 397.385 512 256 512C114.615 512 0 397.385 0 256C0 114.615 114.615 0 256 0Z" fill="#5865F2"/>
<path d="M360.932 160.621C341.063 151.533 320.09 145.084 298.548 141.439C295.613 146.711 292.954 152.133 290.582 157.682C279.124 155.953 267.552 155.084 255.964 155.08C244.395 155.08 232.768 155.959 221.341 157.66C219.007 152.151 216.297 146.688 213.355 141.437C191.812 145.117 170.838 151.578 150.958 160.659C111.475 219.067 100.775 276.016 106.125 332.156C129.245 349.231 155.12 362.219 182.627 370.554C188.796 362.226 194.322 353.361 199.013 344.136C190.062 340.8 181.424 336.678 173.2 331.818C175.365 330.249 177.481 328.632 179.525 327.062C203.437 338.292 229.564 344.15 255.998 344.15C282.434 344.15 308.561 338.292 332.473 327.06C334.542 328.749 336.659 330.366 338.798 331.816C330.559 336.686 321.905 340.819 312.939 344.168C317.647 353.413 323.128 362.243 329.325 370.564C356.857 362.256 382.753 349.269 405.878 332.173L405.872 332.179C412.15 267.076 395.148 210.65 360.932 160.621ZM205.779 297.63C190.871 297.63 178.553 284.1 178.553 267.456C178.553 250.811 190.442 237.162 205.732 237.162C221.021 237.162 233.243 250.811 232.981 267.456C232.72 284.1 220.974 297.63 205.779 297.63ZM306.218 297.63C291.285 297.63 279.016 284.1 279.016 267.456C279.016 250.811 290.905 237.162 306.218 237.162C321.531 237.162 333.658 250.811 333.396 267.456C333.135 284.1 321.412 297.63 306.218 297.63Z" fill="white"/>
</g>
<defs>
<clipPath id="clip0_551_15">
<rect width="512" height="512" fill="white"/>
</clipPath>
</defs>
</svg>
